<svg width="40" height="40" viewBox="0 0 40 40" fill="none" xmlns="http://www.w3.org/2000/svg">
<g clip-path="url(#clip0)">
<path d="M0 19.101V17.4343L13.3344 28.7689L0.174131 38.795C0.0594309 38.5416 0.00013426 38.2678 0 37.9909L0 19.1107V19.101ZM27.4592 17.1478C27.4387 17.8308 27.3261 18.5083 27.1243 19.1628C26.9467 19.7331 26.6655 20.2678 26.2938 20.7416C25.9543 21.1783 25.5153 21.5326 25.0113 21.7767C24.5038 22.0146 23.9472 22.137 23.3838 22.1348C23.1435 22.1364 22.904 22.1091 22.6706 22.0534C22.447 22.0005 22.2318 21.9184 22.031 21.8093C21.8354 21.7043 21.6571 21.5716 21.5019 21.4154C21.4178 21.3325 21.3405 21.2432 21.2708 21.1485C20.9929 21.458 20.6478 21.7038 20.2604 21.8681C19.8731 22.0325 19.453 22.1113 19.0306 22.099C18.7441 22.1008 18.4592 22.058 18.1867 21.9721C17.9218 21.8834 17.6739 21.7525 17.4533 21.5847C17.2297 21.4121 17.0363 21.2054 16.8807 20.9727C16.7096 20.7185 16.5754 20.4424 16.4822 20.1524C16.2797 19.4911 16.2171 18.7968 16.298 18.1114C16.3728 17.4477 16.5372 16.7965 16.7869 16.1745C17.013 15.6158 17.3332 15.0976 17.7346 14.6413C18.103 14.2178 18.5595 13.875 19.0741 13.6355C19.5772 13.4124 20.1252 13.3012 20.6781 13.3099C21.0926 13.3069 21.5057 13.3561 21.9071 13.4564C22.283 13.5526 22.6411 13.7053 22.9686 13.9089L23.5144 14.2637C23.5461 14.2848 23.5715 14.3137 23.5879 14.3475C23.6044 14.3812 23.6114 14.4186 23.6082 14.4558L23.1427 19.3223C23.0872 19.5668 23.1216 19.8225 23.2398 20.045C23.3022 20.1169 23.382 20.1727 23.472 20.2073C23.562 20.242 23.6594 20.2544 23.7555 20.2435C23.9511 20.2426 24.1408 20.1785 24.2947 20.0612C24.4998 19.8922 24.6654 19.6824 24.7802 19.446C24.9461 19.1377 25.0689 18.8093 25.1452 18.4695C25.2374 18.0595 25.2901 17.6421 25.3026 17.2227C25.3584 16.4136 25.285 15.6011 25.085 14.8139C24.9166 14.1689 24.6006 13.5691 24.1607 13.0593C23.7391 12.5792 23.2019 12.208 22.5969 11.9786C21.9038 11.7249 21.1675 11.6012 20.427 11.614C19.9233 11.6109 19.4217 11.6767 18.9368 11.8093C18.4731 11.9395 18.0319 12.1359 17.6275 12.392C17.2113 12.6559 16.8368 12.9771 16.5157 13.3458C16.1778 13.7356 15.892 14.1654 15.6651 14.625C15.4209 15.1208 15.2313 15.6401 15.0992 16.1745C14.9611 16.754 14.8781 17.3446 14.8514 17.9389C14.794 18.7802 14.8674 19.6252 15.0691 20.4454C15.2345 21.1097 15.5515 21.7294 15.9966 22.2585C16.4243 22.7498 16.9725 23.1282 17.5906 23.3588C18.3155 23.6206 19.0845 23.7476 19.8577 23.7331C20.0993 23.7329 20.3408 23.7199 20.581 23.6941C20.8288 23.668 21.0866 23.6257 21.3445 23.5736C21.6023 23.5215 21.8401 23.4662 22.0544 23.4043C22.2481 23.3493 22.4382 23.283 22.6237 23.2058C22.6496 23.1951 22.6775 23.1894 22.7057 23.1892C22.7339 23.1889 22.7618 23.1941 22.788 23.2044C22.8141 23.2147 22.8379 23.2299 22.858 23.2491C22.878 23.2683 22.894 23.2912 22.905 23.3165C22.9079 23.3348 22.9079 23.3535 22.905 23.3718L23.2432 24.739C23.2515 24.7807 23.247 24.824 23.2303 24.8633C23.2137 24.9026 23.1856 24.9363 23.1494 24.9603C22.9387 25.0916 22.7142 25.2008 22.4797 25.2859C22.2108 25.3884 21.9343 25.4711 21.6526 25.5333C21.3513 25.6037 21.0461 25.657 20.7384 25.6928C20.4328 25.7279 20.1252 25.7452 19.8175 25.7448C18.4021 25.7878 16.999 25.4774 15.7421 24.8432C15.1914 24.5507 14.6946 24.1711 14.2721 23.7201C13.8449 23.2565 13.4957 22.7303 13.2373 22.1609C12.9589 21.5423 12.7642 20.8912 12.658 20.224C12.5343 19.4566 12.4905 18.679 12.5274 17.903C12.5571 17.1492 12.6693 16.4006 12.8623 15.67C13.0445 14.9781 13.3098 14.3095 13.6526 13.6778C13.9774 13.0831 14.3829 12.5335 14.8581 12.0437C15.3241 11.5584 15.8585 11.1398 16.4454 10.8002C17.0365 10.4595 17.6732 10.1999 18.3374 10.0287C19.0269 9.85198 19.7373 9.76334 20.4504 9.76502C21.7933 9.73102 23.1217 10.0421 24.3014 10.6667C24.8357 10.9605 25.3193 11.334 25.7346 11.7735C26.1447 12.2197 26.4834 12.7234 26.7392 13.2676C27.0174 13.8474 27.2155 14.4603 27.3286 15.0905C27.451 15.7727 27.4948 16.466 27.4592 17.1576V17.1478ZM18.8531 18.1244C18.8246 18.4265 18.8246 18.7305 18.8531 19.0326C18.8705 19.2461 18.9248 19.4552 19.0138 19.6511C19.0742 19.7822 19.1703 19.8948 19.2918 19.9766C19.4111 20.0487 19.5498 20.085 19.6902 20.0808C19.7933 20.0806 19.895 20.0583 19.9883 20.0157C20.098 19.9605 20.1967 19.8867 20.2796 19.7976C20.3886 19.6826 20.482 19.5547 20.5576 19.4167C20.6495 19.252 20.7268 19.0799 20.7886 18.9024L21.1235 15.3217H21.0666C20.984 15.3164 20.9013 15.3164 20.8187 15.3217C20.5583 15.3171 20.3003 15.3717 20.0653 15.4812C19.8443 15.5909 19.6545 15.7519 19.5128 15.9499C19.3322 16.2206 19.1966 16.5172 19.1109 16.8288C18.9914 17.2553 18.9096 17.6909 18.8665 18.1309L18.8531 18.1244ZM0.0502302 14.1498C0.334868 13.0658 1.91545 12.3692 2.7928 11.7637V7.11203C2.7928 6.59403 3.00448 6.09724 3.38128 5.73096C3.75808 5.36468 4.26913 5.1589 4.80201 5.1589H12.3265L19.5094 0.184944C19.6933 0.0600614 19.9124 -0.0063674 20.1367 -0.00520151C20.361 -0.00403563 20.5794 0.0646677 20.7618 0.191454L27.8208 5.1589H35.1879C35.7208 5.1589 36.2319 5.36468 36.6087 5.73096C36.9855 6.09724 37.1972 6.59403 37.1972 7.11203V11.7507C38.1415 12.4017 39.9899 13.2872 39.9899 14.5144V14.5632L35.198 18.4987V7.10552H4.80201V18.1732L0.0502302 14.1498ZM40 17.8314V37.9909C40.0008 38.4584 39.8325 38.9112 39.5245 39.2702L26.2336 29.1107L40 17.8314ZM36.3164 39.9994H2.76601L15.3068 30.4454L19.0406 33.6192C19.2804 33.8236 19.5899 33.9339 19.9087 33.9284C20.2276 33.923 20.5329 33.8023 20.7652 33.5899L24.221 30.7611L36.3064 39.9994H36.3164Z" fill="white"/>
</g>
<defs>
<clipPath id="clip0">
<rect width="40" height="40" fill="white"/>
</clipPath>
</defs>
</svg>
