<svg width="29" height="23" viewBox="0 0 29 23" fill="none" xmlns="http://www.w3.org/2000/svg">
<path fill-rule="evenodd" clip-rule="evenodd" d="M2.44689 0H26.5533C27.8993 0 29 1.03558 29 2.30135C29 3.56713 27.8993 4.60293 26.5533 4.60293H2.44689C1.1012 4.60293 0 3.56735 0 2.30158C0 1.03558 1.1012 0 2.44689 0ZM2.44689 18.3973H26.5533C27.8993 18.3973 29 19.4329 29 20.6986C29 21.9644 27.8993 23 26.5533 23H2.44689C1.1012 23 0 21.9644 0 20.6986C0 19.4329 1.1012 18.3973 2.44689 18.3973ZM2.44689 9.19876H26.5533C27.8993 9.19876 29 10.2343 29 11.5001C29 12.7659 27.8993 13.8017 26.5533 13.8017H2.44689C1.1012 13.8017 0 12.7659 0 11.5001C0 10.2343 1.1012 9.19876 2.44689 9.19876Z" fill="white"/>
</svg>
