<svg width="64" height="49" viewBox="0 0 64 49" fill="none" xmlns="http://www.w3.org/2000/svg">
<path d="M18.3913 38.24C19.6873 38.24 20.6113 37.964 21.1633 37.412C21.7153 36.86 21.9913 35.96 21.9913 34.712V9.8H25.4113V35.504C25.4113 37.472 24.9433 38.912 24.0073 39.824C23.0953 40.736 21.6913 41.192 19.7953 41.192H18.8593L18.3913 38.24ZM31.1671 9.8H39.4831C42.1711 9.8 44.2591 10.46 45.7471 11.78C47.2591 13.076 48.0151 15.14 48.0151 17.972C48.0151 20.756 47.2591 22.82 45.7471 24.164C44.2351 25.508 42.1471 26.18 39.4831 26.18H34.7671V35H31.1671V9.8ZM38.9791 23.12C40.8271 23.12 42.2071 22.7 43.1191 21.86C44.0311 21.02 44.4871 19.736 44.4871 18.008C44.4871 16.256 44.0431 14.96 43.1551 14.12C42.2911 13.28 40.8991 12.86 38.9791 12.86H34.7671V23.12H38.9791Z" fill="white"/>
<rect x="0.5" y="0.5" width="63" height="48" stroke="white"/>
</svg>
